<svg width="97" height="253" viewBox="0 0 97 253" fill="none" xmlns="http://www.w3.org/2000/svg">
<path d="M88.5418 13.7344C81.515 5.21795 63.7473 -7.87604 48.8906 7.87933C34.0339 23.6347 54.077 53.1228 65.9557 65.8974C71.8114 69.4459 84.0246 75.4784 86.0323 71.2202C88.5418 65.8974 90.0476 54.7196 69.4691 45.1387C56.252 39.461 27.7098 33.4286 19.2776 54.7196C15.4296 63.9457 14.7604 85.3787 42.8676 97.3017L78.0016 112.738M78.0016 112.738C91.386 113.274 110.626 106.892 80.5112 77.0752C70.9748 72.4621 47.8867 63.1296 31.8254 62.7038C22.6237 64.6554 4.92282 74.3074 7.73354 97.3017C7.39893 101.915 13.6561 113.376 41.3618 122.319C47.7194 123.738 61.9403 126.683 67.9633 127.109L89.5456 130.303L78.0016 112.738ZM78.0016 112.738C69.2192 110.254 48.4915 106.031 35.8408 109.012C20.0273 112.738 13.7565 109.544 1.20865 130.303C-0.96631 140.948 0.606355 162.772 24.2967 164.901C47.9871 167.03 63.2788 162.949 67.9633 160.643V140.948M65.9557 198.966L67.9633 178.208V140.948C50.7309 142.545 13.7565 141.374 3.71823 123.915C-1.13361 111.496 -1.50169 86.1239 35.8408 83.9948C44.8752 84.3496 64.1487 85.4852 68.9671 87.1884L67.9633 124.98C50.3963 126.577 13.4554 134.135 6.2278 151.594C2.37979 161.707 1.10827 182.998 26.8063 187.256C36.3427 187.611 57.925 186.298 67.9633 178.208M67.9633 140.948C57.0885 143.61 33.1304 150.955 24.2967 159.046C13.5892 167.917 -2.10398 189.918 20.7833 206.95C27.9775 209.612 47.0837 211.741 65.9557 198.966M67.9633 178.208C55.9173 186.724 31.3235 207.376 29.3159 221.854C28.4793 230.725 30.7212 249.213 46.381 252.194C50.3963 252.904 60.3342 252.833 67.9633 246.871L65.9557 198.966" stroke="#84829A"/>
</svg>
