<svg width="60" height="60" viewBox="0 0 60 60" fill="none" xmlns="http://www.w3.org/2000/svg">
<rect width="60" height="60" rx="4" fill="#EFFAF9"/>
<path d="M43.0909 44.8205C43.0909 45.2659 42.9185 45.6931 42.6116 46.0081C42.3048 46.3231 41.8885 46.5 41.4545 46.5H18.5455C18.1115 46.5 17.6952 46.3231 17.3884 46.0081C17.0815 45.6931 16.9091 45.2659 16.9091 44.8205V29.7047H12L28.8987 13.9373C29.2 13.6559 29.5927 13.5 30 13.5C30.4073 13.5 30.8 13.6559 31.1013 13.9373L48 29.7047H43.0909V44.8205ZM39.8182 43.1409V26.6093L30 17.4492L20.1818 26.6093V43.1409H39.8182ZM30 39.7819L24.5035 34.1403C23.813 33.4316 23.4251 32.4705 23.4251 31.4682C23.4251 30.466 23.813 29.5048 24.5035 28.7961C25.1939 28.0874 26.1304 27.6892 27.1069 27.6892C28.0834 27.6892 29.0199 28.0874 29.7104 28.7961L30 29.0934L30.2896 28.7961C30.6315 28.4452 31.0374 28.1668 31.4841 27.9769C31.9308 27.787 32.4096 27.6892 32.8931 27.6892C33.3766 27.6892 33.8554 27.787 34.3021 27.9769C34.7488 28.1668 35.1547 28.4452 35.4965 28.7961C35.8384 29.147 36.1096 29.5636 36.2947 30.0221C36.4797 30.4805 36.5749 30.9719 36.5749 31.4682C36.5749 31.9645 36.4797 32.4559 36.2947 32.9144C36.1096 33.3728 35.8384 33.7894 35.4965 34.1403L30 39.7819Z" fill="#3ABAB2"/>
</svg>
