<svg width="60" height="60" viewBox="0 0 60 60" fill="none" xmlns="http://www.w3.org/2000/svg">
<rect width="60" height="60" rx="4" fill="#EFFAF9"/>
<path d="M18.091 29.9915H17.4044L30.0088 42.7697L40.3599 32.2759H43.5462L30.0088 46L14.7814 30.5804C14.3707 30.164 14.0068 29.7179 13.69 29.2419C13.3731 28.766 13.0973 28.2544 12.8626 27.7071H17.1403L22.1222 22.6744L30.0088 30.6518L35.6421 24.9587L38.3707 27.7071H44.62C44.9956 27.1003 45.2831 26.4579 45.4826 25.7797C45.6822 25.1015 45.7819 24.4055 45.7819 23.6916C45.7819 22.6565 45.5941 21.6928 45.2186 20.8004C44.843 19.9081 44.3208 19.1348 43.6518 18.4804C42.9829 17.826 42.2083 17.3084 41.3281 16.9277C40.4479 16.547 39.4914 16.3566 38.4587 16.3566C37.4729 16.3566 36.5985 16.5113 35.8357 16.8206C35.0729 17.13 34.3687 17.5464 33.7232 18.0699C33.0777 18.5934 32.4616 19.1704 31.8748 19.801C31.288 20.4316 30.666 21.0919 30.0088 21.782C29.3751 21.1395 28.7589 20.4911 28.1604 19.8367C27.5619 19.1823 26.9399 18.5934 26.2944 18.0699C25.6489 17.5464 24.9389 17.1181 24.1643 16.7849C23.3897 16.4518 22.5213 16.2852 21.5589 16.2852C20.5496 16.2852 19.6049 16.4756 18.7247 16.8563C17.8445 17.2371 17.0699 17.7665 16.401 18.4447C15.732 19.1229 15.2098 19.9081 14.8342 20.8004C14.4587 21.6928 14.265 22.6565 14.2533 23.6916C14.2533 24.2508 14.3178 24.8279 14.4469 25.4227H12.1408C12.0822 25.1372 12.0469 24.8516 12.0352 24.5661C12.0235 24.2806 12.0117 23.995 12 23.7095C12 22.365 12.2465 21.1038 12.7394 19.926C13.2323 18.7481 13.913 17.7189 14.7814 16.8385C15.6499 15.958 16.665 15.268 17.8269 14.7683C18.9888 14.2686 20.2328 14.0127 21.5589 14.0008C22.533 14.0008 23.4015 14.1139 24.1643 14.3399C24.9271 14.566 25.6313 14.8753 26.2768 15.268C26.9222 15.6606 27.5443 16.1425 28.1428 16.7135C28.7413 17.2846 29.3633 17.8974 30.0088 18.5518C30.6543 17.8855 31.2704 17.2727 31.8572 16.7135C32.444 16.1544 33.066 15.6784 33.7232 15.2858C34.3804 14.8932 35.0905 14.5779 35.8533 14.3399C36.6161 14.102 37.4846 13.989 38.4587 14.0008C39.7731 14.0008 41.0112 14.2507 42.1731 14.7504C43.335 15.2501 44.3443 15.9402 45.201 16.8206C46.0577 17.7011 46.7384 18.7243 47.243 19.8903C47.7477 21.0562 48 22.3115 48 23.6559C48 24.81 47.8005 25.9284 47.4015 27.0111C47.0024 28.0938 46.4333 29.0873 45.6939 29.9915H37.42L35.6421 28.1711L30.0088 33.8999L22.1222 25.8868L18.091 29.9915Z" fill="#3ABAB2"/>
</svg>
