<svg width="42" height="42" viewBox="0 0 42 42" fill="none" xmlns="http://www.w3.org/2000/svg">
<g filter="url(#filter0_d_81_91)">
<rect width="40" height="40" rx="20" fill="#EFFAF9" shape-rendering="crispEdges"/>
<g clip-path="url(#clip0_81_91)">
<path d="M20.0004 11.1109C19.2022 11.1137 18.408 11.2239 17.6393 11.4387L18.067 12.472C19.7285 12.0321 21.4887 12.152 23.0751 12.8133C24.6616 13.4746 25.9858 14.6403 26.843 16.13C27.7001 17.6197 28.0424 19.3505 27.8168 21.0543C27.5912 22.7582 26.8103 24.3402 25.595 25.5555C24.3797 26.7708 22.7977 27.5517 21.0938 27.7773C19.3899 28.0029 17.6592 27.6607 16.1695 26.8035C14.6797 25.9464 13.514 24.6221 12.8528 23.0356C12.1915 21.4492 12.0716 19.6891 12.5115 18.0276L11.4782 17.5942C10.9739 19.3881 11.0461 21.2951 11.6847 23.0457C12.3232 24.7963 13.4958 26.302 15.0366 27.3499C16.5774 28.3978 18.4086 28.935 20.2714 28.8855C22.1341 28.836 23.9342 28.2024 25.4173 27.0741C26.9003 25.9459 27.9913 24.3801 28.536 22.5981C29.0807 20.8161 29.0516 18.908 28.4528 17.1434C27.854 15.3788 26.7158 13.847 25.1991 12.7645C23.6824 11.682 21.8638 11.1036 20.0004 11.1109Z" fill="#3ABAB2"/>
<path d="M14.1389 18.7221C13.8616 19.9891 14.0019 21.3118 14.5389 22.4924C15.0758 23.673 15.9805 24.648 17.1177 25.2717C18.2549 25.8954 19.5634 26.1341 20.8476 25.9523C22.1318 25.7704 23.3225 25.1777 24.2419 24.2629C25.1612 23.348 25.7596 22.1601 25.9477 20.8768C26.1357 19.5935 25.9033 18.2839 25.2851 17.1437C24.6669 16.0035 23.6963 15.0941 22.5183 14.5514C21.3403 14.0088 20.0183 13.8621 18.75 14.1332L19.0944 14.9999C20.1735 14.7979 21.2889 14.9471 22.2769 15.4257C23.265 15.9043 24.0735 16.687 24.5839 17.659C25.0943 18.631 25.2797 19.7409 25.1127 20.826C24.9458 21.9111 24.4354 22.9141 23.6565 23.6877C22.8776 24.4613 21.8712 24.9649 20.785 25.1244C19.6988 25.2839 18.5901 25.091 17.6216 24.574C16.6532 24.057 15.876 23.2431 15.4041 22.2519C14.9322 21.2606 14.7906 20.1442 15 19.0665L14.1389 18.7221Z" fill="#3ABAB2"/>
<path d="M19.9998 22.2724C19.443 22.2641 18.9086 22.0512 18.4987 21.6741C18.0889 21.297 17.8322 20.7822 17.7776 20.2279L16.8721 19.8502V20.0002C16.8721 20.6268 17.0584 21.2392 17.4072 21.7598C17.7561 22.2803 18.2517 22.6854 18.8313 22.9237C19.4109 23.1619 20.0482 23.2226 20.6622 23.0979C21.2763 22.9732 21.8395 22.6688 22.2802 22.2233C22.721 21.7779 23.0194 21.2115 23.1376 20.5962C23.2557 19.9808 23.1884 19.3442 22.944 18.7672C22.6996 18.1902 22.2893 17.6988 21.7651 17.3555C21.2408 17.0122 20.6264 16.8324 19.9998 16.839H19.8665L20.2387 17.7779C20.794 17.8621 21.2981 18.15 21.6528 18.5854C22.0075 19.0208 22.1875 19.5727 22.1576 20.1335C22.1278 20.6943 21.8904 21.224 21.4915 21.6194C21.0926 22.0147 20.5609 22.2475 19.9998 22.2724Z" fill="#3ABAB2"/>
<path d="M14.5553 17.4109C14.6066 17.4632 14.6765 17.4932 14.7498 17.4942H16.7776L19.7609 20.4776C19.8655 20.5829 20.0077 20.6424 20.1562 20.6429C20.3046 20.6434 20.4472 20.585 20.5526 20.4804C20.6579 20.3757 20.7174 20.2336 20.7179 20.0851C20.7184 19.9366 20.66 19.794 20.5553 19.6887L17.5165 16.6665V14.7276C17.5154 14.6543 17.4855 14.5844 17.4331 14.5331L14.3276 11.4276C14.2887 11.3895 14.2396 11.3637 14.1862 11.3533C14.1329 11.3429 14.0776 11.3484 14.0273 11.3691C13.9771 11.3898 13.934 11.4248 13.9034 11.4697C13.8728 11.5147 13.8561 11.5677 13.8553 11.622V13.8442H11.6665C11.6121 13.845 11.5591 13.8617 11.5142 13.8923C11.4692 13.9229 11.4342 13.966 11.4135 14.0162C11.3928 14.0665 11.3873 14.1218 11.3977 14.1751C11.4081 14.2285 11.4339 14.2776 11.472 14.3165L14.5553 17.4109Z" fill="#3ABAB2"/>
</g>
</g>
<defs>
<filter id="filter0_d_81_91" x="0" y="0" width="42" height="42" filterUnits="userSpaceOnUse" color-interpolation-filters="sRGB">
<feFlood flood-opacity="0" result="BackgroundImageFix"/>
<feColorMatrix in="SourceAlpha" type="matrix" values="0 0 0 0 0 0 0 0 0 0 0 0 0 0 0 0 0 0 127 0" result="hardAlpha"/>
<feOffset dx="1" dy="1"/>
<feGaussianBlur stdDeviation="0.5"/>
<feComposite in2="hardAlpha" operator="out"/>
<feColorMatrix type="matrix" values="0 0 0 0 0.095082 0 0 0 0 0.304918 0 0 0 0 0.291803 0 0 0 1 0"/>
<feBlend mode="normal" in2="BackgroundImageFix" result="effect1_dropShadow_81_91"/>
<feBlend mode="normal" in="SourceGraphic" in2="effect1_dropShadow_81_91" result="shape"/>
</filter>
<clipPath id="clip0_81_91">
<rect width="20" height="20" fill="white" transform="translate(10 10)"/>
</clipPath>
</defs>
</svg>
