<svg width="60" height="60" viewBox="0 0 60 60" fill="none" xmlns="http://www.w3.org/2000/svg">
<rect width="60" height="60" rx="4" fill="#EFFAF9"/>
<path d="M22.2469 26.3239C24.1956 26.3239 25.7944 27.1487 27.1411 28.0308C27.8049 28.465 28.4688 28.9581 29.0624 29.3801C29.6782 29.8177 30.2546 30.2032 30.831 30.5088C31.1158 30.6529 31.4537 30.9082 31.7848 30.8908C31.8671 30.8873 32.1999 30.8457 32.7609 30.1615L34.3734 27.9006C36.305 25.7526 39.8698 25.7856 41.7413 28.0829L47.6065 35.3518C48.0714 36.1558 48.1211 37.123 47.7729 37.9687L47.567 38.3802C46.8122 39.627 45.6251 41.6222 44.0589 43.2945C42.5047 44.9563 40.3895 46.4983 37.7563 46.5C35.8058 46.5 34.2053 45.6752 32.8604 44.793C32.1965 44.3589 31.5309 43.864 30.9374 43.4421C30.5045 43.1296 30.0599 42.8341 29.6045 42.5565L29.1687 42.3116C28.6164 42.0182 28.4311 41.9192 28.2167 41.9296C28.1309 41.9365 27.7912 41.9817 27.2217 42.6815L25.9917 44.4596V44.4631C24.2934 46.9029 20.739 47.1633 18.6581 45.1664L12.6643 37.8593C12.2776 37.3856 12.0475 36.8009 12.0066 36.1878C11.9657 35.5747 12.1159 34.964 12.4361 34.4419L13.0812 33.3844C13.8051 32.221 14.7657 30.7832 15.9408 29.5294C17.495 27.8676 19.6119 26.3239 22.2469 26.3239ZM22.2469 28.9025C20.6429 28.9025 19.1573 29.8472 17.7935 31.3041C16.5344 32.6481 15.5651 34.2214 14.6079 35.7894C14.5661 35.8539 14.5455 35.9302 14.5492 36.0073C14.5529 36.0843 14.5807 36.1582 14.6285 36.2183L20.2278 43.0948L20.413 43.2997C21.3977 44.2374 23.1235 44.0967 23.904 42.9767L30.6355 33.2628C30.2949 33.1333 29.9651 32.9765 29.6491 32.794C28.92 32.4068 28.2338 31.9431 27.6008 31.4916C26.9455 31.0263 26.3657 30.5956 25.755 30.1945C24.5524 29.4061 23.4597 28.9025 22.2469 28.9025ZM39.772 29.7256C38.8353 28.5744 36.9243 28.649 36.094 29.842L36.0975 29.8437L35.1368 31.2277L35.1523 31.2381L29.3815 39.5662C29.8343 39.7277 30.1809 39.9361 30.3524 40.0264L30.8928 40.332C31.4211 40.6463 31.9255 40.9936 32.4007 41.3305C33.0542 41.7959 33.6341 42.2265 34.2448 42.6259C35.449 43.416 36.5435 43.9179 37.7563 43.9179C39.3586 43.9179 40.8441 42.975 42.2079 41.5198C43.5614 40.075 44.6164 38.3142 45.3918 37.0327C45.4604 36.8712 45.4604 36.7566 45.3712 36.6038L39.772 29.7256ZM21.4234 13.5C22.7883 13.5 24.0973 14.0488 25.0625 15.0258C26.0276 16.0028 26.5698 17.3278 26.5698 18.7094C26.5698 20.0911 26.0276 21.4161 25.0625 22.3931C24.0973 23.37 22.7883 23.9189 21.4234 23.9189C20.0585 23.9189 18.7495 23.37 17.7844 22.3931C16.8193 21.4161 16.2771 20.0911 16.2771 18.7094C16.2771 17.3278 16.8193 16.0028 17.7844 15.0258C18.7495 14.0488 20.0585 13.5 21.4234 13.5ZM38.578 13.5C39.9429 13.5 41.2519 14.0488 42.2171 15.0258C43.1822 16.0028 43.7244 17.3278 43.7244 18.7094C43.7244 20.0911 43.1822 21.4161 42.2171 22.3931C41.2519 23.37 39.9429 23.9189 38.578 23.9189C37.2131 23.9189 35.9041 23.37 34.939 22.3931C33.9739 21.4161 33.4316 20.0911 33.4316 18.7094C33.4316 17.3278 33.9739 16.0028 34.939 15.0258C35.9041 14.0488 37.2131 13.5 38.578 13.5ZM21.4234 16.1047C20.741 16.1047 20.0865 16.3791 19.6039 16.8676C19.1214 17.3561 18.8502 18.0186 18.8502 18.7094C18.8502 19.4002 19.1214 20.0628 19.6039 20.5512C20.0865 21.0397 20.741 21.3141 21.4234 21.3141C22.1059 21.3141 22.7604 21.0397 23.243 20.5512C23.7255 20.0628 23.9966 19.4002 23.9966 18.7094C23.9966 18.0186 23.7255 17.3561 23.243 16.8676C22.7604 16.3791 22.1059 16.1047 21.4234 16.1047ZM38.578 16.1047C37.8956 16.1047 37.2411 16.3791 36.7585 16.8676C36.2759 17.3561 36.0048 18.0186 36.0048 18.7094C36.0048 19.4002 36.2759 20.0628 36.7585 20.5512C37.2411 21.0397 37.8956 21.3141 38.578 21.3141C39.2605 21.3141 39.915 21.0397 40.3975 20.5512C40.8801 20.0628 41.1512 19.4002 41.1512 18.7094C41.1512 18.0186 40.8801 17.3561 40.3975 16.8676C39.915 16.3791 39.2605 16.1047 38.578 16.1047Z" fill="#3ABAB2"/>
</svg>
