<svg width="60" height="60" viewBox="0 0 60 60" fill="none" xmlns="http://www.w3.org/2000/svg">
<rect width="60" height="60" rx="4" fill="#EFFAF9"/>
<path d="M46.6154 26.5938H45.1667C44.8188 22.8779 43.0705 19.4238 40.2647 16.909C37.4588 14.3941 33.7979 13 30 13C26.2021 13 22.5412 14.3941 19.7353 16.909C16.9295 19.4238 15.1812 22.8779 14.8333 26.5938H13.3846C13.0174 26.5938 12.6652 26.7371 12.4055 26.9922C12.1459 27.2473 12 27.5934 12 27.9542C12.0061 31.1894 12.9123 34.3615 14.6206 37.1274C16.3289 39.8932 18.7743 42.1475 21.6923 43.6466V44.2792C21.6923 45.0008 21.9841 45.6928 22.5034 46.2031C23.0227 46.7133 23.7271 47 24.4615 47H35.5385C36.2729 47 36.9773 46.7133 37.4966 46.2031C38.0159 45.6928 38.3077 45.0008 38.3077 44.2792V43.6466C41.2257 42.1475 43.6711 39.8932 45.3794 37.1274C47.0877 34.3615 47.9939 31.1894 48 27.9542C48 27.5934 47.8541 27.2473 47.5945 26.9922C47.3348 26.7371 46.9826 26.5938 46.6154 26.5938ZM42.3819 26.5938H33.4823C35.161 24.1193 37.7007 22.3314 40.6252 21.5653C41.5814 23.0935 42.1813 24.8107 42.3819 26.5938ZM37.8715 18.4704C38.1888 18.7254 38.4929 18.9947 38.7837 19.2781C35.0977 20.5521 32.0518 23.1703 30.2769 26.5904H25.1712C26.0366 24.207 27.6298 22.1442 29.7332 20.6838C31.8366 19.2235 34.3475 18.4368 36.9231 18.4313C37.2398 18.4313 37.5565 18.4466 37.8715 18.4704ZM30 15.7104C31.1111 15.7114 32.217 15.8584 33.2885 16.1475C30.6792 16.7834 28.2867 18.0839 26.352 19.9179C24.4173 21.7519 23.0089 24.0545 22.2687 26.5938H17.6181C17.9615 23.6023 19.4134 20.8397 21.697 18.8325C23.9805 16.8253 26.936 15.714 30 15.7104ZM36.345 41.5583C36.1035 41.6674 35.899 41.8424 35.756 42.0625C35.613 42.2826 35.5374 42.5386 35.5385 42.7997V44.2792H24.4615V42.7997C24.4626 42.5386 24.387 42.2826 24.244 42.0625C24.101 41.8424 23.8965 41.6674 23.655 41.5583C21.22 40.4574 19.1226 38.7466 17.5733 36.5975C16.0239 34.4484 15.0772 31.9368 14.8281 29.3146H45.1667C44.9181 31.9362 43.9722 34.4475 42.4238 36.5966C40.8754 38.7456 38.779 40.4567 36.345 41.5583Z" fill="#3ABAB2"/>
</svg>
