<svg width="145" height="154" viewBox="0 0 145 154" fill="none" xmlns="http://www.w3.org/2000/svg">
<path d="M7.19727 12.6104H11.5586V14.4902H7.19727V19.4316H5.19922V14.4902H0.837891V12.6104H5.19922V8.04492H7.19727V12.6104Z" fill="#3ABAB2"/>
<path d="M7.19727 44.6104H11.5586V46.4902H7.19727V51.4316H5.19922V46.4902H0.837891V44.6104H5.19922V40.0449H7.19727V44.6104Z" fill="#E5E5E5"/>
<path d="M7.19727 76.6104H11.5586V78.4902H7.19727V83.4316H5.19922V78.4902H0.837891V76.6104H5.19922V72.0449H7.19727V76.6104Z" fill="#E5E5E5"/>
<path d="M40.1973 12.6104H44.5586V14.4902H40.1973V19.4316H38.1992V14.4902H33.8379V12.6104H38.1992V8.04492H40.1973V12.6104Z" fill="#E5E5E5"/>
<path d="M40.1973 44.6104H44.5586V46.4902H40.1973V51.4316H38.1992V46.4902H33.8379V44.6104H38.1992V40.0449H40.1973V44.6104Z" fill="#E5E5E5"/>
<path d="M40.1973 76.6104H44.5586V78.4902H40.1973V83.4316H38.1992V78.4902H33.8379V76.6104H38.1992V72.0449H40.1973V76.6104Z" fill="#E5E5E5"/>
<path d="M40.1973 108.61H44.5586V110.49H40.1973V115.432H38.1992V110.49H33.8379V108.61H38.1992V104.045H40.1973V108.61Z" fill="#E5E5E5"/>
<path d="M73.1973 12.6104H77.5586V14.4902H73.1973V19.4316H71.1992V14.4902H66.8379V12.6104H71.1992V8.04492H73.1973V12.6104Z" fill="#E5E5E5"/>
<path d="M73.1973 44.6104H77.5586V46.4902H73.1973V51.4316H71.1992V46.4902H66.8379V44.6104H71.1992V40.0449H73.1973V44.6104Z" fill="#E5E5E5"/>
<path d="M73.1973 76.6104H77.5586V78.4902H73.1973V83.4316H71.1992V78.4902H66.8379V76.6104H71.1992V72.0449H73.1973V76.6104Z" fill="#184E4A"/>
<path d="M73.1973 108.61H77.5586V110.49H73.1973V115.432H71.1992V110.49H66.8379V108.61H71.1992V104.045H73.1973V108.61Z" fill="#E5E5E5"/>
<path d="M73.1973 140.61H77.5586V142.49H73.1973V147.432H71.1992V142.49H66.8379V140.61H71.1992V136.045H73.1973V140.61Z" fill="#E5E5E5"/>
<path d="M106.197 12.6104H110.559V14.4902H106.197V19.4316H104.199V14.4902H99.8379V12.6104H104.199V8.04492H106.197V12.6104Z" fill="#E5E5E5"/>
<path d="M106.197 44.6104H110.559V46.4902H106.197V51.4316H104.199V46.4902H99.8379V44.6104H104.199V40.0449H106.197V44.6104Z" fill="#E5E5E5"/>
<path d="M106.197 76.6104H110.559V78.4902H106.197V83.4316H104.199V78.4902H99.8379V76.6104H104.199V72.0449H106.197V76.6104Z" fill="#E5E5E5"/>
<path d="M106.197 108.61H110.559V110.49H106.197V115.432H104.199V110.49H99.8379V108.61H104.199V104.045H106.197V108.61Z" fill="#E5E5E5"/>
<path d="M106.197 140.61H110.559V142.49H106.197V147.432H104.199V142.49H99.8379V140.61H104.199V136.045H106.197V140.61Z" fill="#E5E5E5"/>
<path d="M139.197 12.6104H143.559V14.4902H139.197V19.4316H137.199V14.4902H132.838V12.6104H137.199V8.04492H139.197V12.6104Z" fill="#E5E5E5"/>
<path d="M139.197 44.6104H143.559V46.4902H139.197V51.4316H137.199V46.4902H132.838V44.6104H137.199V40.0449H139.197V44.6104Z" fill="#E5E5E5"/>
<path d="M139.197 76.6104H143.559V78.4902H139.197V83.4316H137.199V78.4902H132.838V76.6104H137.199V72.0449H139.197V76.6104Z" fill="#E5E5E5"/>
<path d="M139.197 108.61H143.559V110.49H139.197V115.432H137.199V110.49H132.838V108.61H137.199V104.045H139.197V108.61Z" fill="#E5E5E5"/>
<path d="M139.197 140.61H143.559V142.49H139.197V147.432H137.199V142.49H132.838V140.61H137.199V136.045H139.197V140.61Z" fill="#E5E5E5"/>
</svg>
