<svg width="42" height="42" viewBox="0 0 42 42" fill="none" xmlns="http://www.w3.org/2000/svg">
<g filter="url(#filter0_d_81_85)">
<rect width="40" height="40" rx="20" fill="#EFFAF9"/>
<path d="M16.8623 32V29.2924H18.7037C18.9386 29.2918 19.1637 29.1964 19.3298 29.0272C19.4959 28.8579 19.5895 28.6285 19.5901 28.3891V26.4429H20.6135C20.7279 26.4437 20.8406 26.4151 20.9412 26.3597C21.0417 26.3043 21.127 26.2239 21.1889 26.126C21.2508 26.028 21.2875 25.9157 21.2954 25.7995C21.3034 25.6833 21.2824 25.5669 21.2345 25.4611C20.5654 23.9425 19.5879 22.0793 19.5879 22.0793V20.6011C19.5879 20.4025 19.5473 20.2062 19.467 20.0251C19.1964 19.2787 18.7533 18.6097 18.1753 18.0748C17.5972 17.5399 16.9012 17.1547 16.1461 16.952C15.2178 16.68 14.241 16.6261 13.2893 16.7943C12.3376 16.9626 11.4358 17.3486 10.6516 17.9233C9.86746 18.4981 9.22145 19.2466 8.7622 20.1125C8.30295 20.9784 8.04242 21.9392 8.00022 22.9225C7.99287 23.81 8.17136 24.6888 8.52378 25.5003C8.8762 26.3119 9.39444 27.0375 10.0439 27.6287V32M25.309 16.1425C26.0796 16.1425 26.8186 15.8306 27.3635 15.2754M25.309 16.1425C24.5384 16.1425 23.7994 15.8306 23.2545 15.2754M25.309 16.1425V18.3636M27.3635 15.2754C27.9084 14.7201 28.2145 13.9671 28.2145 13.1818M27.3635 15.2754L28.905 16.8462M28.2145 13.1818C28.2145 12.3966 27.9084 11.6435 27.3635 11.0883M28.2145 13.1818H30.3942M27.3635 11.0883C26.8186 10.533 26.0796 10.2211 25.309 10.2211M27.3635 11.0883L28.905 9.51745M25.309 10.2211C24.5384 10.2211 23.7994 10.533 23.2545 11.0883M25.309 10.2211V8M23.2545 11.0883C22.7096 11.6435 22.4035 12.3966 22.4035 13.1818M23.2545 11.0883L21.713 9.51745M22.4035 13.1818C22.4035 13.9671 22.7096 14.7201 23.2545 15.2754M22.4035 13.1818H20.2239M23.2545 15.2754L21.713 16.8462M24.8251 8H25.7929M28.5624 9.16836L29.2476 9.86655M30.3942 12.6887V13.6749M29.2476 16.4971L28.5624 17.1953M25.7929 18.3636H24.8251M22.0556 17.1953L21.3704 16.4971M20.2239 13.6749V12.6887M21.3704 9.86655L22.0556 9.16836M24.5061 23.2727L28.253 21.0909V23.2727L32 21.0909M24.5061 27.6364L28.7059 28.6018L27.8002 29.9436L32 30.9091" stroke="#3ABAB2" stroke-width="1.2" stroke-linecap="round" stroke-linejoin="round"/>
</g>
<defs>
<filter id="filter0_d_81_85" x="0" y="0" width="42" height="42" filterUnits="userSpaceOnUse" color-interpolation-filters="sRGB">
<feFlood flood-opacity="0" result="BackgroundImageFix"/>
<feColorMatrix in="SourceAlpha" type="matrix" values="0 0 0 0 0 0 0 0 0 0 0 0 0 0 0 0 0 0 127 0" result="hardAlpha"/>
<feOffset dx="1" dy="1"/>
<feGaussianBlur stdDeviation="0.5"/>
<feComposite in2="hardAlpha" operator="out"/>
<feColorMatrix type="matrix" values="0 0 0 0 0.095082 0 0 0 0 0.304918 0 0 0 0 0.291803 0 0 0 1 0"/>
<feBlend mode="normal" in2="BackgroundImageFix" result="effect1_dropShadow_81_85"/>
<feBlend mode="normal" in="SourceGraphic" in2="effect1_dropShadow_81_85" result="shape"/>
</filter>
</defs>
</svg>
