<svg width="24" height="24" viewBox="0 0 24 24" fill="none" xmlns="http://www.w3.org/2000/svg">
<g clip-path="url(#clip0_110_321)">
<path d="M0.515483 11.8563C0.514921 13.8728 1.04579 15.8417 2.05522 17.5771L0.418945 23.5066L6.53289 21.9156C8.22394 22.8292 10.1186 23.308 12.044 23.3081H12.0491C18.4051 23.3081 23.5791 18.1748 23.5818 11.8653C23.583 8.80792 22.3844 5.93295 20.2068 3.76997C18.0295 1.60718 15.1339 0.415458 12.0486 0.414062C5.69179 0.414062 0.518201 5.54709 0.515577 11.8563" fill="url(#paint0_linear_110_321)"/>
<path d="M0.103217 11.8527C0.102561 13.9417 0.652452 15.981 1.69787 17.7786L0.00292969 23.9207L6.3361 22.2726C8.0811 23.2168 10.0458 23.7147 12.045 23.7154H12.0501C18.6342 23.7154 23.994 18.3975 23.9968 11.8621C23.998 8.69488 22.7563 5.71656 20.5009 3.47609C18.2451 1.23591 15.2459 0.00130233 12.0501 0C5.46492 0 0.105841 5.31721 0.103217 11.8527ZM3.87485 17.469L3.63838 17.0965C2.64432 15.5277 2.11964 13.7149 2.12039 11.8534C2.12245 6.4213 6.5767 2.00186 12.0539 2.00186C14.7063 2.00298 17.1991 3.02921 19.074 4.89116C20.9488 6.7533 21.9804 9.22865 21.9798 11.8614C21.9773 17.2935 17.523 21.7135 12.0501 21.7135H12.0462C10.2642 21.7126 8.51646 21.2376 6.99228 20.34L6.62956 20.1265L2.87133 21.1045L3.87485 17.469Z" fill="url(#paint1_linear_110_321)"/>
<path d="M9.06402 6.89771C8.84039 6.4044 8.60504 6.39445 8.39238 6.3858C8.21824 6.37836 8.01916 6.37892 7.82027 6.37892C7.6212 6.37892 7.29775 6.45324 7.02435 6.74952C6.75067 7.04608 5.97949 7.76273 5.97949 9.22031C5.97949 10.6779 7.04919 12.0866 7.19831 12.2845C7.34761 12.482 9.26338 15.5689 12.2975 16.7564C14.8191 17.7433 15.3322 17.547 15.8795 17.4975C16.4269 17.4482 17.6457 16.7811 17.8943 16.0892C18.1432 15.3975 18.1432 14.8046 18.0686 14.6807C17.994 14.5572 17.7949 14.4831 17.4964 14.335C17.1979 14.1869 15.7302 13.4701 15.4566 13.3712C15.1829 13.2724 14.984 13.2231 14.7849 13.5198C14.5858 13.8159 14.0142 14.4831 13.8399 14.6807C13.6659 14.8787 13.4916 14.9034 13.1932 14.7552C12.8945 14.6065 11.9332 14.2941 10.7926 13.2849C9.90521 12.4996 9.30612 11.5298 9.13197 11.2331C8.95783 10.937 9.11332 10.7764 9.263 10.6288C9.39712 10.496 9.56161 10.2828 9.71101 10.1099C9.85985 9.93687 9.90953 9.81343 10.0091 9.61585C10.1087 9.41808 10.0588 9.24506 9.98432 9.09687C9.90953 8.94868 9.32945 7.48347 9.06402 6.89771Z" fill="white"/>
</g>
<defs>
<linearGradient id="paint0_linear_110_321" x1="1158.56" y1="2309.67" x2="1158.56" y2="0.414062" gradientUnits="userSpaceOnUse">
<stop stop-color="#1FAF38"/>
<stop offset="1" stop-color="#60D669"/>
</linearGradient>
<linearGradient id="paint1_linear_110_321" x1="1199.7" y1="2392.07" x2="1199.7" y2="0" gradientUnits="userSpaceOnUse">
<stop stop-color="#F9F9F9"/>
<stop offset="1" stop-color="white"/>
</linearGradient>
<clipPath id="clip0_110_321">
<rect width="24" height="24" fill="white"/>
</clipPath>
</defs>
</svg>
